# xmcd
#
# Track frame offsets:
#   150
#   6736
#   13074
#   21916
#   30540
#   34660
#   42515
#   46627
#   52224
#   57212
#   62599
#   67672
#   71668
#   75506
#
# Disc length: 1195 seconds
#
# Revision: 0
# Processed by: cddbd v1.5.1PL2 Copyright (c) Steve Scherf et al.
# Submitted via: GXTranscoder 2.0.1939
#
DISCID=b504a90e
DTITLE=Los Verdaderos - Volver
DYEAR=2005
DGENRE=Children's Music
TTITLE0=En Pie
TTITLE1=Mi Lugar
TTITLE2=Concepto Verdadero
TTITLE3=Nada Que Demostrar
TTITLE4=No Perder
TTITLE5=Siempre Lo Intento
TTITLE6=Recordar
TTITLE7=Los Verdaderos
TTITLE8=Separar
TTITLE9=Siempre Libre
TTITLE10=Competir
TTITLE11=Volver
TTITLE12=La Juventud
TTITLE13=La Promesa
EXTD=
EXTT0=
EXTT1=
EXTT2=
EXTT3=
EXTT4=
EXTT5=
EXTT6=
EXTT7=
EXTT8=
EXTT9=
EXTT10=
EXTT11=
EXTT12=
EXTT13=
PLAYORDER=
